<svg width="420" height="254" viewBox="0 0 420 254" fill="none" xmlns="http://www.w3.org/2000/svg">
<rect width="420" height="254" fill="white"/>
<circle cx="88" cy="164" r="75" fill="#B6B6B6"/>
<circle cx="163.5" cy="102.5" r="87.5" fill="#B6B6B6"/>
<circle cx="251" cy="125" r="75" fill="#B6B6B6"/>
<circle cx="333" cy="164" r="75" fill="#B6B6B6"/>
<line x1="79.999" y1="238" x2="335.001" y2="238" stroke="#C4C4C4"/>
<rect x="85" y="141" width="255" height="98" fill="#B6B6B6"/>
<path d="M64.592 188.32C63.056 188.32 61.8187 187.957 60.88 187.232C59.9413 186.464 59.216 185.461 58.704 184.224C58.192 182.987 57.8293 181.579 57.616 180C57.4453 178.421 57.3387 176.8 57.296 175.136C57.2533 173.429 57.2107 171.765 57.168 170.144C57.168 168.523 57.104 167.051 56.976 165.728C56.5067 165.728 56.016 165.749 55.504 165.792C54.992 165.835 54.4373 165.856 53.84 165.856C53.6693 165.856 53.4347 165.792 53.136 165.664C52.88 165.536 52.6027 165.365 52.304 165.152C52.048 164.896 51.8133 164.597 51.6 164.256C51.4293 163.915 51.344 163.509 51.344 163.04C51.344 162.187 51.6 161.461 52.112 160.864C52.624 160.267 53.2 159.968 53.84 159.968C54.3947 159.968 54.9493 159.989 55.504 160.032C56.0587 160.032 56.656 160.053 57.296 160.096C57.296 159.541 57.3173 158.688 57.36 157.536C57.4453 156.384 57.5733 155.253 57.744 154.144C57.9573 153.035 58.256 152.053 58.64 151.2C59.024 150.347 59.536 149.92 60.176 149.92C60.5173 149.92 60.88 150.176 61.264 150.688C61.6907 151.157 61.904 151.797 61.904 152.608C61.904 154.528 61.84 155.957 61.712 156.896C61.6267 157.835 61.5413 158.539 61.456 159.008L61.264 160.16C62.8 160.16 64.336 160.139 65.872 160.096C67.4507 160.053 69.0293 160.032 70.608 160.032C70.9067 160.032 71.1627 160.139 71.376 160.352C71.5893 160.565 71.76 160.843 71.888 161.184C72.016 161.483 72.1013 161.824 72.144 162.208C72.2293 162.549 72.272 162.869 72.272 163.168C72.272 164.064 72.0373 164.747 71.568 165.216C71.1413 165.643 70.7147 165.856 70.288 165.856L61.2 165.728C61.2 166.112 61.1787 166.624 61.136 167.264C61.136 167.861 61.136 168.523 61.136 169.248C61.136 169.973 61.1147 170.741 61.072 171.552C61.072 172.32 61.072 173.067 61.072 173.792C61.072 174.944 61.1147 176.053 61.2 177.12C61.2853 178.144 61.4347 179.061 61.648 179.872C61.904 180.683 62.2453 181.344 62.672 181.856C63.0987 182.325 63.6747 182.56 64.4 182.56C64.912 182.56 65.424 182.453 65.936 182.24C66.4907 182.027 66.9813 181.792 67.408 181.536C67.8773 181.237 68.2613 180.981 68.56 180.768C68.8587 180.555 69.0507 180.448 69.136 180.448C69.648 180.448 69.9893 180.619 70.16 180.96C70.3307 181.259 70.416 181.707 70.416 182.304C70.416 182.944 70.2027 183.627 69.776 184.352C69.392 185.035 68.9013 185.675 68.304 186.272C67.7067 186.869 67.0667 187.36 66.384 187.744C65.7013 188.128 65.104 188.32 64.592 188.32ZM75.929 176.992C75.929 174.901 76.2917 172.832 77.017 170.784C77.7423 168.693 78.745 166.837 80.025 165.216C81.305 163.552 82.777 162.229 84.441 161.248C86.1477 160.224 87.961 159.712 89.881 159.712C91.3317 159.712 92.697 160.053 93.977 160.736C95.2997 161.419 96.4303 162.315 97.369 163.424C98.3077 164.491 99.0543 165.728 99.609 167.136C100.164 168.501 100.441 169.867 100.441 171.232C100.441 171.957 100.398 172.661 100.313 173.344C100.228 173.984 100.121 174.645 99.993 175.328C99.9077 175.968 99.8223 176.651 99.737 177.376C99.6517 178.101 99.609 178.912 99.609 179.808C99.609 181.003 99.7797 181.835 100.121 182.304C100.462 182.773 100.953 183.008 101.593 183.008C101.977 183.008 102.34 182.795 102.681 182.368C103.065 181.941 103.406 181.685 103.705 181.6C104.814 181.6 105.369 182.411 105.369 184.032C105.369 184.544 105.262 185.056 105.049 185.568C104.836 186.08 104.537 186.549 104.153 186.976C103.769 187.36 103.321 187.701 102.809 188C102.297 188.256 101.742 188.384 101.145 188.384C100.548 188.384 99.9503 188.213 99.353 187.872C98.7983 187.531 98.2863 187.104 97.817 186.592C97.3477 186.037 96.9637 185.419 96.665 184.736C96.3663 184.011 96.217 183.264 96.217 182.496C94.937 184.117 93.4863 185.547 91.865 186.784C90.2863 188.021 88.537 188.64 86.617 188.64C85.3797 188.64 84.121 188.341 82.841 187.744C81.6037 187.147 80.473 186.336 79.449 185.312C78.425 184.245 77.5717 183.008 76.889 181.6C76.249 180.149 75.929 178.613 75.929 176.992ZM79.897 176.8C79.897 177.739 80.1103 178.592 80.537 179.36C81.0063 180.128 81.6037 180.789 82.329 181.344C83.097 181.856 83.929 182.261 84.825 182.56C85.7637 182.859 86.681 183.008 87.577 183.008C89.4543 183.008 90.9477 182.603 92.057 181.792C93.1663 180.939 94.041 179.893 94.681 178.656C95.321 177.376 95.769 176.011 96.025 174.56C96.281 173.067 96.5157 171.659 96.729 170.336C96.729 169.867 96.4943 169.355 96.025 168.8C95.5983 168.203 95.065 167.669 94.425 167.2C93.785 166.688 93.081 166.261 92.313 165.92C91.5877 165.579 90.9263 165.408 90.329 165.408C88.7503 165.408 87.321 165.749 86.041 166.432C84.761 167.115 83.6517 168.011 82.713 169.12C81.817 170.187 81.113 171.403 80.601 172.768C80.1317 174.133 79.897 175.477 79.897 176.8ZM90.329 156.192C89.689 156.192 89.2837 156.021 89.113 155.68C88.9423 155.339 88.857 154.869 88.857 154.272V153.44C88.857 152.715 89.0063 152.139 89.305 151.712C89.6463 151.285 90.0517 150.859 90.521 150.432C91.033 149.963 91.545 149.323 92.057 148.512C92.6117 147.659 93.1663 146.848 93.721 146.08C94.2757 145.269 94.8517 144.587 95.449 144.032C96.0463 143.435 96.6437 143.136 97.241 143.136C97.8383 143.136 98.3503 143.371 98.777 143.84C99.2037 144.309 99.417 144.992 99.417 145.888C99.417 146.101 99.2463 146.507 98.905 147.104C98.5637 147.701 98.1157 148.384 97.561 149.152C97.049 149.92 96.4517 150.709 95.769 151.52C95.129 152.331 94.4677 153.099 93.785 153.824C93.1023 154.507 92.4623 155.083 91.865 155.552C91.2677 155.979 90.7557 156.192 90.329 156.192ZM122.364 177.312C122.364 174.923 122.641 172.683 123.196 170.592C123.793 168.459 124.646 166.603 125.756 165.024C126.908 163.445 128.316 162.208 129.98 161.312C131.644 160.373 133.564 159.904 135.74 159.904C136.764 159.904 137.724 160.096 138.62 160.48C139.558 160.864 140.369 161.397 141.052 162.08C141.777 162.763 142.332 163.573 142.716 164.512C143.142 165.451 143.356 166.475 143.356 167.584C143.356 167.84 143.334 168.16 143.292 168.544C143.249 168.885 143.164 169.227 143.036 169.568C142.95 169.909 142.822 170.208 142.652 170.464C142.481 170.677 142.268 170.784 142.012 170.784C141.5 170.784 141.094 170.528 140.796 170.016C140.497 169.504 140.113 168.928 139.644 168.288C139.217 167.648 138.62 167.072 137.852 166.56C137.126 166.048 136.081 165.792 134.716 165.792C133.478 165.792 132.326 166.069 131.26 166.624C130.236 167.179 129.34 167.925 128.572 168.864C127.846 169.76 127.27 170.805 126.844 172C126.46 173.152 126.268 174.347 126.268 175.584C126.268 177.035 126.46 178.229 126.844 179.168C127.27 180.064 127.91 180.789 128.764 181.344C129.66 181.856 130.769 182.219 132.092 182.432C133.414 182.603 134.972 182.688 136.764 182.688C137.276 182.688 137.702 182.645 138.044 182.56C138.428 182.432 138.769 182.304 139.068 182.176C139.409 182.048 139.729 181.92 140.028 181.792C140.369 181.621 140.753 181.472 141.18 181.344C141.35 181.344 141.564 181.408 141.82 181.536C142.076 181.621 142.332 181.813 142.588 182.112C142.844 182.368 143.057 182.731 143.228 183.2C143.398 183.627 143.484 184.181 143.484 184.864C143.484 185.589 143.185 186.315 142.588 187.04C142.033 187.723 141.521 188.064 141.052 188.064H139.324C138.3 188.064 137.318 188.107 136.38 188.192C135.484 188.277 134.524 188.32 133.5 188.32C131.964 188.32 130.513 188.149 129.148 187.808C127.825 187.467 126.652 186.891 125.628 186.08C124.646 185.227 123.857 184.096 123.26 182.688C122.662 181.237 122.364 179.445 122.364 177.312ZM149.074 185.056C149.074 182.453 149.095 179.552 149.138 176.352C149.18 173.152 149.223 169.909 149.266 166.624C149.351 163.296 149.415 160.032 149.458 156.832C149.5 153.632 149.522 150.752 149.522 148.192C149.522 147.851 149.564 147.467 149.65 147.04C149.778 146.613 149.948 146.208 150.161 145.824C150.375 145.44 150.631 145.12 150.93 144.864C151.228 144.565 151.57 144.416 151.954 144.416C152.423 144.416 152.828 144.672 153.17 145.184C153.554 145.653 153.746 146.229 153.746 146.912V147.04C153.746 149.429 153.682 151.925 153.554 154.528C153.426 157.131 153.362 159.648 153.362 162.08L153.234 165.6C153.362 164.789 153.682 164.043 154.194 163.36C154.706 162.677 155.303 162.101 155.986 161.632C156.668 161.12 157.394 160.736 158.162 160.48C158.93 160.224 159.655 160.096 160.338 160.096C162.855 160.096 164.903 160.544 166.482 161.44C168.06 162.336 169.276 163.467 170.13 164.832C171.026 166.197 171.623 167.712 171.922 169.376C172.263 170.997 172.434 172.533 172.434 173.984L172.114 183.584C172.114 183.968 172.092 184.459 172.05 185.056C172.007 185.653 171.922 186.229 171.794 186.784C171.666 187.296 171.452 187.744 171.154 188.128C170.855 188.512 170.428 188.704 169.874 188.704C169.148 188.704 168.572 188.405 168.146 187.808C167.762 187.168 167.57 186.4 167.57 185.504C167.57 183.627 167.676 181.877 167.89 180.256C168.146 178.592 168.274 176.864 168.274 175.072V174.432C168.274 173.536 168.21 172.576 168.082 171.552C167.954 170.528 167.612 169.589 167.058 168.736C166.503 167.84 165.692 167.115 164.626 166.56C163.559 166.005 162.108 165.728 160.274 165.728C159.378 165.728 158.503 165.899 157.65 166.24C156.796 166.539 156.05 166.944 155.41 167.456C154.77 167.925 154.236 168.459 153.81 169.056C153.426 169.611 153.234 170.144 153.234 170.656V184.48C153.234 184.907 153.212 185.333 153.17 185.76C153.127 186.187 153.042 186.592 152.914 186.976C152.828 187.317 152.658 187.595 152.402 187.808C152.146 188.021 151.783 188.128 151.314 188.128C151.143 188.128 150.93 188.107 150.674 188.064C150.418 188.021 150.162 187.893 149.906 187.68C149.692 187.467 149.5 187.168 149.33 186.784C149.159 186.357 149.074 185.781 149.074 185.056ZM177.49 174.432C177.49 171.744 177.853 169.461 178.578 167.584C179.303 165.707 180.263 164.192 181.458 163.04C182.653 161.845 183.997 160.992 185.49 160.48C186.983 159.925 188.498 159.648 190.034 159.648C193.575 159.648 196.327 160.992 198.29 163.68C200.253 166.325 201.234 169.909 201.234 174.432C201.234 176.565 200.893 178.507 200.21 180.256C199.527 181.963 198.631 183.456 197.522 184.736C196.413 185.973 195.133 186.933 193.682 187.616C192.274 188.299 190.823 188.64 189.33 188.64C187.709 188.64 186.173 188.213 184.722 187.36C183.314 186.464 182.055 185.333 180.946 183.968C179.879 182.603 179.026 181.088 178.386 179.424C177.789 177.717 177.49 176.053 177.49 174.432ZM189.01 183.2C190.077 183.2 191.101 183.008 192.082 182.624C193.106 182.197 194.002 181.6 194.77 180.832C195.581 180.064 196.221 179.125 196.69 178.016C197.159 176.907 197.394 175.627 197.394 174.176C197.394 172.853 197.223 171.637 196.882 170.528C196.541 169.419 196.071 168.48 195.474 167.712C194.877 166.901 194.173 166.283 193.362 165.856C192.551 165.429 191.677 165.216 190.738 165.216C189.629 165.216 188.498 165.408 187.346 165.792C186.237 166.133 185.234 166.667 184.338 167.392C183.442 168.075 182.695 168.971 182.098 170.08C181.543 171.147 181.266 172.384 181.266 173.792C181.266 174.944 181.479 176.096 181.906 177.248C182.333 178.357 182.909 179.36 183.634 180.256C184.359 181.152 185.191 181.877 186.13 182.432C187.069 182.944 188.029 183.2 189.01 183.2ZM215.014 188.832C214.374 188.832 213.691 188.192 212.966 186.912C212.241 185.632 211.494 183.947 210.726 181.856C209.958 179.765 209.169 177.419 208.358 174.816C207.59 172.171 206.843 169.525 206.118 166.88C205.905 166.368 205.691 165.792 205.478 165.152C205.265 164.469 205.158 163.765 205.158 163.04C205.158 162.4 205.243 161.739 205.414 161.056C205.585 160.373 206.033 160.032 206.758 160.032C207.611 160.032 208.187 160.288 208.486 160.8C208.827 161.312 209.169 162.08 209.51 163.104C209.979 164.597 210.406 166.069 210.79 167.52C211.217 168.971 211.665 170.443 212.134 171.936C212.603 173.429 213.137 174.987 213.734 176.608C214.331 178.229 215.035 179.936 215.846 181.728C215.974 181.6 216.166 181.323 216.422 180.896C216.678 180.427 217.083 179.637 217.638 178.528C218.193 177.419 218.918 175.861 219.814 173.856C220.753 171.851 221.926 169.205 223.334 165.92C224.443 163.616 225.339 161.909 226.022 160.8C226.747 159.691 227.345 159.136 227.814 159.136C228.326 159.136 228.71 159.456 228.966 160.096C229.265 160.693 229.414 161.44 229.414 162.336C229.414 162.677 229.35 163.04 229.222 163.424C229.137 163.808 228.923 164.341 228.582 165.024C228.283 165.707 227.835 166.624 227.238 167.776C226.683 168.885 225.937 170.336 224.998 172.128C224.401 173.536 223.675 175.2 222.822 177.12C221.969 179.04 221.073 180.875 220.134 182.624C219.195 184.331 218.278 185.803 217.382 187.04C216.486 188.235 215.697 188.832 215.014 188.832ZM236.454 178.592C236.795 179.701 237.371 180.576 238.182 181.216C238.992 181.856 239.888 182.325 240.87 182.624C241.851 182.923 242.832 183.115 243.814 183.2C244.795 183.243 245.648 183.264 246.374 183.264C247.099 183.264 247.824 183.157 248.55 182.944C249.275 182.731 249.958 182.496 250.598 182.24C251.28 181.984 251.899 181.749 252.454 181.536C253.051 181.323 253.542 181.216 253.926 181.216C255.376 181.216 256.102 182.155 256.102 184.032C256.102 185.141 255.59 185.995 254.566 186.592C253.584 187.189 252.411 187.637 251.046 187.936C249.723 188.235 248.4 188.405 247.078 188.448C245.798 188.533 244.859 188.576 244.262 188.576C242.811 188.576 241.382 188.256 239.974 187.616C238.566 186.976 237.307 186.08 236.198 184.928C235.131 183.776 234.256 182.432 233.574 180.896C232.934 179.36 232.614 177.696 232.614 175.904C232.614 173.429 232.912 171.168 233.51 169.12C234.15 167.072 235.046 165.301 236.198 163.808C237.35 162.315 238.779 161.163 240.486 160.352C242.192 159.499 244.134 159.072 246.31 159.072C247.376 159.072 248.486 159.285 249.638 159.712C250.79 160.096 251.814 160.693 252.71 161.504C253.648 162.272 254.416 163.253 255.014 164.448C255.611 165.6 255.91 166.944 255.91 168.48C255.91 169.461 255.76 170.293 255.462 170.976C255.163 171.659 254.758 172.085 254.246 172.256L236.454 178.592ZM236.198 174.176C237.392 173.835 238.736 173.387 240.23 172.832C241.766 172.235 243.302 171.637 244.838 171.04C246.374 170.4 247.803 169.803 249.126 169.248C250.491 168.651 251.6 168.181 252.454 167.84C251.899 166.645 250.96 165.813 249.638 165.344C248.358 164.832 246.971 164.576 245.478 164.576C244.88 164.576 244.112 164.768 243.174 165.152C242.235 165.493 241.275 166.048 240.294 166.816C239.355 167.584 238.502 168.587 237.734 169.824C236.966 171.019 236.454 172.469 236.198 174.176ZM262.017 173.28C261.932 172.256 261.868 171.424 261.825 170.784C261.825 170.101 261.804 169.547 261.761 169.12C261.761 168.693 261.761 168.373 261.761 168.16C261.761 167.947 261.761 167.733 261.761 167.52V166.624C261.761 165.941 261.782 165.216 261.825 164.448C261.91 163.637 262.017 162.891 262.145 162.208C262.316 161.525 262.529 160.949 262.785 160.48C263.041 160.011 263.382 159.776 263.809 159.776C265.302 159.776 266.049 161.077 266.049 163.68C266.049 164.149 266.028 164.64 265.985 165.152C265.942 165.664 265.878 166.219 265.793 166.816C266.134 165.579 266.689 164.512 267.457 163.616C268.268 162.72 269.142 161.973 270.081 161.376C271.02 160.779 271.937 160.331 272.833 160.032C273.772 159.733 274.561 159.584 275.201 159.584C277.206 159.584 278.87 160.053 280.193 160.992C281.516 161.931 282.561 163.147 283.329 164.64C284.097 166.133 284.63 167.797 284.929 169.632C285.228 171.467 285.377 173.28 285.377 175.072C285.377 176.565 285.334 178.123 285.249 179.744C285.206 181.365 285.078 182.859 284.865 184.224C284.694 185.547 284.417 186.656 284.033 187.552C283.649 188.405 283.137 188.832 282.497 188.832C281.857 188.832 281.302 188.661 280.833 188.32C280.406 188.021 280.193 187.104 280.193 185.568C280.193 184.8 280.257 184.075 280.385 183.392C280.513 182.667 280.641 181.941 280.769 181.216C280.94 180.491 281.089 179.765 281.217 179.04C281.345 178.272 281.409 177.483 281.409 176.672C281.409 175.52 281.324 174.283 281.153 172.96C281.025 171.637 280.705 170.4 280.193 169.248C279.681 168.096 278.956 167.136 278.017 166.368C277.078 165.6 275.82 165.216 274.241 165.216C273.644 165.216 272.961 165.365 272.193 165.664C271.425 165.92 270.657 166.304 269.889 166.816C269.121 167.285 268.374 167.861 267.649 168.544C266.966 169.227 266.369 169.973 265.857 170.784C265.857 171.765 265.836 172.875 265.793 174.112C265.75 175.307 265.729 176.352 265.729 177.248C265.729 178.613 265.878 179.893 266.177 181.088C266.518 182.283 266.689 183.563 266.689 184.928C266.689 185.867 266.582 186.677 266.369 187.36C266.156 188.043 265.58 188.384 264.641 188.384C264.3 188.384 263.958 188.341 263.617 188.256C263.318 188.213 263.02 188.064 262.721 187.808C262.465 187.552 262.252 187.189 262.081 186.72C261.953 186.251 261.889 185.611 261.889 184.8L262.017 173.28ZM290.364 175.456C290.364 173.451 290.662 171.509 291.26 169.632C291.857 167.712 292.71 166.027 293.82 164.576C294.972 163.083 296.38 161.909 298.044 161.056C299.708 160.16 301.606 159.712 303.74 159.712C305.532 159.712 307.11 160.203 308.476 161.184C309.841 162.165 310.609 163.467 310.78 165.088C310.78 164.619 310.78 163.957 310.78 163.104C310.78 162.208 310.78 161.205 310.78 160.096C310.822 158.987 310.844 157.856 310.844 156.704C310.844 155.509 310.844 154.357 310.844 153.248C310.886 152.139 310.908 151.157 310.908 150.304C310.908 149.408 310.908 148.725 310.908 148.256C310.908 146.208 311.654 145.184 313.148 145.184C313.745 145.184 314.15 145.483 314.364 146.08C314.62 146.677 314.748 147.317 314.748 148C314.748 148.341 314.748 148.939 314.748 149.792C314.748 150.603 314.726 151.477 314.684 152.416C314.684 153.312 314.684 154.165 314.684 154.976C314.684 155.787 314.684 156.384 314.684 156.768C314.598 159.797 314.534 162.379 314.492 164.512C314.449 166.603 314.406 168.331 314.364 169.696C314.364 171.061 314.342 172.128 314.3 172.896C314.3 173.664 314.3 174.24 314.3 174.624C314.3 174.965 314.3 175.179 314.3 175.264C314.3 175.349 314.3 175.413 314.3 175.456L314.236 180.512C314.236 181.621 314.193 182.667 314.108 183.648C314.065 184.587 313.958 185.419 313.788 186.144C313.617 186.827 313.361 187.381 313.02 187.808C312.678 188.235 312.23 188.448 311.676 188.448C311.206 188.448 310.822 188.107 310.524 187.424C310.225 186.741 309.969 186.08 309.756 185.44C309.244 185.952 308.604 186.4 307.836 186.784C307.068 187.125 306.278 187.424 305.468 187.68C304.657 187.893 303.846 188.064 303.036 188.192C302.268 188.32 301.606 188.384 301.052 188.384C299.26 188.384 297.681 188.085 296.316 187.488C294.993 186.848 293.884 185.952 292.988 184.8C292.092 183.648 291.43 182.283 291.004 180.704C290.577 179.125 290.364 177.376 290.364 175.456ZM294.46 175.264C294.46 177.739 295.164 179.68 296.572 181.088C297.98 182.453 299.708 183.136 301.756 183.136C302.993 183.136 304.102 183.008 305.083 182.752C306.065 182.453 306.897 182.112 307.58 181.728C308.262 181.344 308.796 180.939 309.18 180.512C309.606 180.085 309.862 179.701 309.948 179.36C310.161 178.635 310.268 177.867 310.268 177.056C310.31 176.245 310.332 175.456 310.332 174.688V172.96C310.332 171.936 310.14 170.976 309.756 170.08C309.414 169.141 308.945 168.309 308.348 167.584C307.75 166.859 307.046 166.283 306.236 165.856C305.468 165.429 304.657 165.216 303.804 165.216C302.353 165.216 301.052 165.472 299.9 165.984C298.748 166.453 297.766 167.136 296.956 168.032C296.145 168.928 295.526 169.995 295.1 171.232C294.673 172.469 294.46 173.813 294.46 175.264ZM320.428 174.432C320.428 171.744 320.79 169.461 321.516 167.584C322.241 165.707 323.201 164.192 324.396 163.04C325.59 161.845 326.934 160.992 328.428 160.48C329.921 159.925 331.436 159.648 332.972 159.648C336.513 159.648 339.265 160.992 341.228 163.68C343.19 166.325 344.172 169.909 344.172 174.432C344.172 176.565 343.83 178.507 343.148 180.256C342.465 181.963 341.569 183.456 340.46 184.736C339.35 185.973 338.07 186.933 336.62 187.616C335.212 188.299 333.761 188.64 332.268 188.64C330.646 188.64 329.11 188.213 327.66 187.36C326.252 186.464 324.993 185.333 323.884 183.968C322.817 182.603 321.964 181.088 321.324 179.424C320.726 177.717 320.428 176.053 320.428 174.432ZM331.948 183.2C333.014 183.2 334.038 183.008 335.02 182.624C336.044 182.197 336.94 181.6 337.708 180.832C338.518 180.064 339.158 179.125 339.628 178.016C340.097 176.907 340.332 175.627 340.332 174.176C340.332 172.853 340.161 171.637 339.82 170.528C339.478 169.419 339.009 168.48 338.412 167.712C337.814 166.901 337.11 166.283 336.3 165.856C335.489 165.429 334.614 165.216 333.676 165.216C332.566 165.216 331.436 165.408 330.284 165.792C329.174 166.133 328.172 166.667 327.276 167.392C326.38 168.075 325.633 168.971 325.036 170.08C324.481 171.147 324.204 172.384 324.204 173.792C324.204 174.944 324.417 176.096 324.844 177.248C325.27 178.357 325.846 179.36 326.572 180.256C327.297 181.152 328.129 181.877 329.068 182.432C330.006 182.944 330.966 183.2 331.948 183.2ZM357.248 178.912C356.394 178.912 355.605 178.549 354.88 177.824C354.154 177.056 353.792 176.181 353.792 175.2C353.792 174.005 354.112 172.981 354.752 172.128C355.434 171.232 356.245 170.443 357.184 169.76C358.165 169.035 359.232 168.352 360.384 167.712C361.536 167.072 362.581 166.389 363.52 165.664C364.501 164.939 365.312 164.128 365.952 163.232C366.634 162.293 366.976 161.184 366.976 159.904C366.976 158.88 366.784 158.027 366.4 157.344C366.016 156.619 365.504 156.043 364.864 155.616C364.266 155.147 363.584 154.827 362.816 154.656C362.09 154.443 361.365 154.336 360.64 154.336C359.872 154.336 359.21 154.507 358.656 154.848C358.101 155.147 357.568 155.488 357.056 155.872C356.544 156.256 356.032 156.619 355.52 156.96C355.008 157.259 354.432 157.429 353.792 157.472C353.45 157.472 353.109 157.344 352.768 157.088C352.469 156.789 352.32 156.149 352.32 155.168C352.32 154.229 352.661 153.376 353.344 152.608C354.026 151.84 354.816 151.179 355.712 150.624C356.65 150.069 357.589 149.664 358.528 149.408C359.466 149.109 360.192 148.96 360.704 148.96C363.477 148.96 365.76 149.835 367.552 151.584C369.386 153.333 370.304 155.915 370.304 159.328C370.304 162.187 369.77 164.576 368.704 166.496C367.68 168.373 365.973 169.952 363.583 171.232C363.114 171.531 362.602 171.872 362.048 172.256C361.536 172.64 361.045 173.045 360.576 173.472C360.106 173.856 359.701 174.283 359.36 174.752C359.061 175.221 358.912 175.691 358.912 176.16C358.912 176.885 358.826 177.525 358.656 178.08C358.485 178.635 358.016 178.912 357.248 178.912ZM352.896 185.12C352.896 184.608 352.981 184.117 353.152 183.648C353.365 183.179 353.621 182.773 353.92 182.432C354.261 182.048 354.624 181.749 355.008 181.536C355.392 181.28 355.754 181.152 356.095 181.152C356.736 181.152 357.376 181.365 358.016 181.792C358.698 182.219 359.04 183.093 359.04 184.416C359.04 187.019 358.08 188.32 356.16 188.32C355.904 188.32 355.584 188.277 355.2 188.192C354.858 188.107 354.496 187.957 354.112 187.744C353.77 187.488 353.472 187.168 353.216 186.784C353.002 186.357 352.896 185.803 352.896 185.12Z" fill="#FCF7F7"/>
</svg>
