<svg width="400" height="400" viewBox="0 0 400 400" fill="none" xmlns="http://www.w3.org/2000/svg">
<g clip-path="url(#clip0)">
<path d="M200.042 319.775C266.19 319.775 319.814 266.151 319.814 200.003C319.814 133.855 266.19 80.2312 200.042 80.2312C133.894 80.2312 80.2703 133.855 80.2703 200.003C80.2703 266.151 133.894 319.775 200.042 319.775Z" fill="#FFBE26"/>
<path d="M95.8953 200C95.8953 136.477 145.35 84.5125 207.857 80.4867C138.33 76.0047 80.2695 131.158 80.2695 200C80.2695 266.149 133.895 319.774 200.044 319.774C202.67 319.774 205.273 319.68 207.857 319.514C145.349 315.487 95.8953 263.523 95.8953 200Z" fill="#FBB106"/>
<path d="M198.385 58.4805C197.881 58.4805 197.37 58.4148 196.859 58.2781C193.734 57.4375 191.882 54.2234 192.723 51.0984L197.058 34.9758C195.467 34.4914 194.015 33.5758 192.873 32.2922C190.83 29.9961 190.073 26.8492 190.846 23.8734L195.912 4.38669C196.727 1.25544 199.927 -0.623464 203.058 0.190599C206.19 1.00466 208.069 4.20466 207.254 7.33591L202.947 23.8992C204.608 24.3484 206.127 25.2765 207.304 26.6101C209.29 28.8601 210.01 31.9336 209.23 34.832L204.038 54.1406C203.336 56.7562 200.97 58.4805 198.385 58.4805Z" fill="#FFBE26"/>
<path d="M198.385 400C197.881 400 197.37 399.934 196.859 399.798C193.734 398.957 191.882 395.743 192.723 392.618L197.058 376.495C195.466 376.011 194.014 375.095 192.873 373.812C190.83 371.516 190.072 368.369 190.846 365.394L195.912 345.907C196.727 342.775 199.927 340.898 203.058 341.71C206.19 342.524 208.069 345.723 207.255 348.855L202.948 365.419C204.609 365.868 206.127 366.796 207.304 368.13C209.29 370.38 210.01 373.453 209.231 376.352L204.039 395.66C203.336 398.276 200.97 400 198.385 400Z" fill="#FFBE26"/>
<path d="M94.6594 102.823C92.6328 102.823 90.6617 101.769 89.5766 99.8875L81.2414 85.421C79.7742 86.2031 78.1016 86.5851 76.3852 86.4828C73.3172 86.3039 70.5555 84.6148 68.9984 81.964L58.8031 64.6007C57.1641 61.8101 58.0984 58.2203 60.8883 56.5804C63.6789 54.9414 67.2687 55.8757 68.9086 58.6656L77.5758 73.4234C79.068 72.5664 80.7961 72.1453 82.5742 72.2593C85.5695 72.446 88.2516 74.1101 89.75 76.7109L99.732 94.0351C101.348 96.839 100.384 100.422 97.5805 102.038C96.6578 102.57 95.6516 102.823 94.6594 102.823Z" fill="#FFBE26"/>
<path d="M336.15 344.312C334.123 344.312 332.152 343.259 331.068 341.377L322.733 326.912C321.266 327.694 319.593 328.076 317.877 327.973C314.809 327.794 312.048 326.105 310.491 323.455L300.294 306.092C298.655 303.301 299.589 299.712 302.379 298.072C305.169 296.433 308.759 297.366 310.399 300.157L319.066 314.914C320.559 314.057 322.289 313.641 324.064 313.751C327.059 313.937 329.742 315.602 331.24 318.202L341.221 335.526C342.837 338.33 341.873 341.912 339.07 343.529C338.148 344.06 337.142 344.312 336.15 344.312Z" fill="#FFBE26"/>
<path d="M26.1922 209.477C25.4196 209.477 24.6407 209.38 23.8735 209.18L4.38676 204.113C1.25473 203.299 -0.624178 200.1 0.190666 196.968C1.00473 193.836 4.20395 191.955 7.33598 192.772L23.8993 197.079C24.3485 195.418 25.2766 193.899 26.6102 192.722C28.861 190.736 31.9344 190.016 34.8321 190.795L54.1407 195.987C57.2657 196.828 59.118 200.042 58.2774 203.167C57.4375 206.292 54.2227 208.145 51.0977 207.304L34.975 202.969C34.4907 204.559 33.575 206.012 32.2922 207.153C30.5883 208.669 28.4149 209.477 26.1922 209.477Z" fill="#FFBE26"/>
<path d="M367.712 209.477C366.939 209.477 366.16 209.38 365.393 209.18L345.906 204.113C342.774 203.299 340.895 200.099 341.71 196.968C342.524 193.837 345.72 191.957 348.855 192.772L365.419 197.079C365.868 195.418 366.796 193.899 368.13 192.722C370.38 190.736 373.452 190.016 376.352 190.795L395.66 195.987C398.785 196.828 400.638 200.042 399.797 203.167C398.956 206.292 395.741 208.143 392.617 207.304L376.495 202.969C376.01 204.559 375.095 206.012 373.812 207.153C372.109 208.669 369.936 209.477 367.712 209.477Z" fill="#FFBE26"/>
<path d="M61.6398 342.03C59.6297 342.03 57.6734 340.995 56.582 339.137C54.9438 336.346 55.8773 332.756 58.6672 331.116L73.4242 322.45C72.5672 320.958 72.15 319.227 72.2609 317.452C72.4477 314.457 74.1117 311.774 76.7125 310.276L94.0367 300.294C96.8406 298.678 100.423 299.642 102.04 302.445C103.655 305.248 102.692 308.832 99.8883 310.448L85.4227 318.784C86.2047 320.251 86.5844 321.925 86.4844 323.639C86.3055 326.708 84.6164 329.469 81.9664 331.025L64.6031 341.222C63.6695 341.769 62.6477 342.03 61.6398 342.03Z" fill="#FFBE26"/>
<path d="M303.13 100.54C301.12 100.54 299.164 99.5054 298.073 97.6468C296.434 94.8562 297.368 91.2663 300.158 89.6265L314.916 80.9601C314.059 79.4671 313.641 77.7367 313.752 75.9617C313.939 72.9663 315.603 70.2843 318.203 68.7859L335.527 58.8046C338.33 57.1898 341.913 58.1523 343.53 60.9562C345.145 63.7601 344.182 67.3429 341.378 68.9593L326.912 77.2937C327.694 78.7609 328.073 80.4351 327.973 82.1492C327.795 85.2179 326.105 87.9788 323.455 89.5351L306.092 99.732C305.16 100.28 304.138 100.54 303.13 100.54Z" fill="#FFBE26"/>
</g>
<defs>
<clipPath id="clip0">
<rect width="400" height="400" fill="white"/>
</clipPath>
</defs>
</svg>
