<svg height="512pt" viewBox="0 0 512 512" width="512pt" xmlns="http://www.w3.org/2000/svg"><path d="m467 512c-8.289062 0-15-6.710938-15-15v-61h-61v61c0 8.289062-6.710938 15-15 15s-15-6.710938-15-15v-121c0-8.289062 6.710938-15 15-15h91c8.289062 0 15 6.710938 15 15v121c0 8.289062-6.710938 15-15 15zm0 0" fill="#ff9f00"/><path d="m226 376h60v121h-60zm0 0" fill="#68544f"/><path d="m256 376h30v121h-30zm0 0" fill="#3e322e"/><path d="m357.101562 171.398438c2.699219-11.996094 3.898438-23.699219 3.898438-35.398438 0-74.398438-47.101562-136-105-136s-105 61.601562-105 136c0 11.699219 1.199219 23.402344 3.898438 35.398438-21.898438 27.601562-33.898438 62.703124-33.898438 99.601562 0 82.800781 60.601562 150 135 150s135-67.199219 135-150c0-36.898438-12-72-33.898438-99.601562zm0 0" fill="#00b44b"/><path d="m391 271c0 82.800781-60.601562 150-135 150v-421c57.898438 0 105 61.601562 105 136 0 11.699219-1.199219 23.402344-3.898438 35.398438 21.898438 27.601562 33.898438 62.703124 33.898438 99.601562zm0 0" fill="#00a03c"/><path d="m106 376h60v121h-60zm0 0" fill="#725d57"/><path d="m136 376h30v121h-30zm0 0" fill="#53433f"/><path d="m237.101562 171.398438c2.699219-11.996094 3.898438-23.699219 3.898438-35.398438 0-74.398438-47.101562-136-105-136s-105 61.601562-105 136c0 11.699219 1.199219 23.402344 3.898438 35.398438-21.898438 27.601562-34.898438 62.703124-34.898438 99.601562 0 82.800781 61.601562 150 136 150s135-67.199219 135-150c0-36.898438-12-72-33.898438-99.601562zm0 0" fill="#70da40"/><path d="m512 497c0 8.402344-6.597656 15-15 15h-482c-8.402344 0-15-6.597656-15-15s6.597656-15 15-15h482c8.402344 0 15 6.597656 15 15zm0 0" fill="#90e36a"/><path d="m497 451h-151c-8.289062 0-15-6.710938-15-15s6.710938-15 15-15h151c8.289062 0 15 6.710938 15 15s-6.710938 15-15 15zm0 0" fill="#fdbf00"/><g fill="#56c225"><path d="m271 271c0 82.800781-60.601562 150-135 150v-421c57.898438 0 105 61.601562 105 136 0 11.699219-1.199219 23.402344-3.898438 35.398438 21.898438 27.601562 33.898438 62.703124 33.898438 99.601562zm0 0"/><path d="m512 497c0 8.402344-6.597656 15-15 15h-241v-30h241c8.402344 0 15 6.597656 15 15zm0 0"/></g></svg>