<svg width="842" height="268" viewBox="0 0 842 268" fill="none" xmlns="http://www.w3.org/2000/svg">
<g filter="url(#filter0_d)">
<path d="M421 46.875C248.188 46.875 105.71 122.64 85.8625 220.334C84.6777 226.17 94.0768 230.52 101.639 227.477C119.481 220.304 148.797 215.625 181.939 215.625C223.694 215.625 259.376 223.052 273.685 233.536C277.526 236.35 283.861 236.965 288.189 234.484C307.338 223.502 359.57 215.625 421 215.625C482.43 215.625 534.664 223.504 553.815 234.484C558.141 236.965 564.478 236.35 568.319 233.536C582.626 223.052 618.307 215.625 660.063 215.625C693.204 215.625 722.521 220.304 740.359 227.477C747.923 230.518 757.322 226.168 756.136 220.334C736.29 122.639 593.812 46.875 421 46.875Z" fill="#FFE17D"/>
<path d="M519.438 515.625C511.664 515.625 505.375 519.823 505.375 525V557.812C505.375 570.735 489.609 581.25 470.219 581.25C450.828 581.25 435.062 570.735 435.062 557.812V65.625H406.938V557.812C406.938 581.077 435.323 600 470.219 600C505.115 600 533.5 581.077 533.5 557.812V525C533.5 519.823 527.211 515.625 519.438 515.625Z" fill="#867E88"/>
<path d="M406.939 234.609C411.575 234.51 416.117 234.374 421.002 234.374C425.887 234.374 430.429 234.51 435.064 234.609V65.625H406.939V234.609V234.609Z" fill="#6F6571"/>
<path d="M421 0C413.227 0 406.938 4.19766 406.938 9.375V65.625H435.062V9.375C435.062 4.19766 428.773 0 421 0Z" fill="#C9C6CA"/>
<path d="M85.8643 220.332C84.6777 226.167 94.0768 230.517 101.641 227.476C119.481 220.304 148.797 215.625 181.939 215.625C223.694 215.625 259.376 223.052 273.685 233.536C277.526 236.35 283.862 236.965 288.187 234.484C307.338 223.502 359.57 215.625 421 215.625V46.875C248.188 46.875 105.712 122.639 85.8643 220.332Z" fill="#FFC350"/>
<path d="M421 46.875C345.21 46.875 283.595 130.876 280.656 235.975C283.293 236.189 285.996 235.739 288.187 234.483C307.338 223.502 359.57 215.625 421 215.625C482.43 215.625 534.664 223.504 553.815 234.484C556.005 235.74 558.709 236.19 561.346 235.976C558.405 130.876 496.79 46.875 421 46.875Z" fill="#FFD164"/>
</g>
<defs>
<filter id="filter0_d" x="-33" y="0" width="908" height="608" filterUnits="userSpaceOnUse" color-interpolation-filters="sRGB">
<feFlood flood-opacity="0" result="BackgroundImageFix"/>
<feColorMatrix in="SourceAlpha" type="matrix" values="0 0 0 0 0 0 0 0 0 0 0 0 0 0 0 0 0 0 127 0"/>
<feOffset dy="4"/>
<feGaussianBlur stdDeviation="2"/>
<feColorMatrix type="matrix" values="0 0 0 0 0 0 0 0 0 0 0 0 0 0 0 0 0 0 0.25 0"/>
<feBlend mode="normal" in2="BackgroundImageFix" result="effect1_dropShadow"/>
<feBlend mode="normal" in="SourceGraphic" in2="effect1_dropShadow" result="shape"/>
</filter>
</defs>
</svg>
